<?xml version="1.0" encoding="UTF-8" standalone="no"?>
<!-- Creator: CorelDRAW X7 -->
<svg xmlns:rdf="http://www.w3.org/1999/02/22-rdf-syntax-ns#" style="image-rendering:optimizeQuality;text-rendering:geometricPrecision;shape-rendering:geometricPrecision" xmlns="http://www.w3.org/2000/svg" fill-rule="evenodd" xml:space="preserve" height="1.557in" width="4.459in" version="1.1" clip-rule="evenodd" xmlns:cc="http://creativecommons.org/ns#" xmlns:xlink="http://www.w3.org/1999/xlink" viewBox="0 0 4458.9999 1556.9887" xmlns:dc="http://purl.org/dc/elements/1.1/"><metadata><rdf:RDF><cc:Work rdf:about=""><dc:format>image/svg+xml</dc:format><dc:type rdf:resource="http://purl.org/dc/dcmitype/StillImage"/><dc:title/></cc:Work></rdf:RDF></metadata><defs><style type="text/css"><![CDATA[
    .str0 {stroke:#D2D3D5;stroke-width:6.94488}
    .fil2 {fill:#FEFEFE}
    .fil0 {fill:#FEFEFE}
    .fil11 {fill:#E6E7E8}
    .fil5 {fill:#4B4B4D}
    .fil1 {fill:#454545}
    .fil4 {fill:#E01C26}
    .fil10 {fill:#E01C26}
    .fil7 {fill:url(#id0)}
    .fil8 {fill:url(#id1)}
    .fil3 {fill:url(#id2)}
    .fil6 {fill:url(#id3)}
    .fil9 {fill:url(#id4)}
   ]]></style><linearGradient id="id0" y2="14445" gradientUnits="userSpaceOnUse" x2="11848" y1="14445" x1="10647"><stop stop-color="#FEFEFE" offset="0"/><stop stop-color="#fff" offset="1"/></linearGradient><linearGradient id="id1" y2="12968" gradientUnits="userSpaceOnUse" x2="2744.5" y1="12032" x1="2042.5"><stop stop-color="#E01C26" offset="0"/><stop stop-color="#822F2F" offset="1"/></linearGradient><linearGradient id="id2" y2="10789" xlink:href="#id1" gradientUnits="userSpaceOnUse" x2="11599" y1="9853.5" x1="10897"/><linearGradient id="id3" y2="14913" xlink:href="#id1" gradientUnits="userSpaceOnUse" x2="11599" y1="13978" x1="10897"/><linearGradient id="id4" y2="22898" gradientUnits="userSpaceOnUse" x2="2500.9" y1="17663" x1="7754.9"><stop stop-color="#E01C26" offset="0"/><stop stop-color="#993132" offset="1"/></linearGradient></defs><g transform="translate(-1615 -3941.1)"><path d="m2394 3941c430 0 778 348 778 779 0 430-348 778-778 778-431 0-779-348-779-778 0-431 348-779 779-779z" class="fil1" fill="#454545"/><path d="m2394 4362c197 0 357 160 357 358v2h11c91 0 171 43 222 110 7-36 10-74 10-112 0-332-269-601-600-601-332 0-601 269-601 601 0 331 269 600 601 600 89 0 175-20 251-55 27 10 56 15 86 15h17c126-9 227-114 227-243 0-48-14-92-37-130-44-68-120-114-207-114-135 0-244 109-244 244 0 9 0 18 1 27-30 8-62 13-94 13-198 0-358-160-358-357 0-198 160-358 358-358zm151 263c-32-50-88-84-151-84-99 0-179 80-179 179 0 98 80 178 179 178 4 0 8 0 12-1 93-6 166-83 166-177 0-35-10-68-27-95z" class="fil2" fill="#fefefe"/></g><path d="m2048 1085.9c-83 0-147-20-194-60-47-41-71-98-74-172-1-16-1-42-1-78s0-62 1-79c2-71 27-127 75-166 47-40 111-60 193-60 54 0 102 9 143 27 40 17 71 40 93 68 21 27 32 56 33 85 0 5-1 9-5 13-4 3-8 5-13 5h-133c-5 0-10-1-13-3s-6-5-9-9c-7-16-18-29-33-41-15-11-36-17-63-17-66 0-100 34-103 103v147c3 73 37 109 104 109 33 0 60-9 79-25 19-17 29-42 29-75v-15h-76c-6 0-11-3-16-7-4-4-6-9-6-16v-66c0-6 2-12 6-16 5-4 10-6 16-6h217c6 0 11 2 16 6 4 4 6 10 6 16v99c0 48-11 90-34 125-22 35-54 61-95 80-41 18-89 28-143 28zm388-9c-6 0-11-2-15-6-4-5-6-9-6-15v-554.99c0-6 2-11 6-15s9-6 15-6h122c6 0 11 2 15 6s6 9 6 15v555c0 6-2 10-6 15-4 4-9 6-15 6zm226 0c-4 0-9-2-12-5-4-4-6-8-6-13 0-3 0-6 1-7l199-547c5-17 17-25 34-25h133c17 0 28 8 34 25l199 547c1 1 1 4 1 7 0 5-2 9-6 13-3 3-8 5-12 5h-111c-14 0-23-6-29-19l-31-82h-223l-31 82c-6 13-15 19-29 19zm207-229h151l-76-218zm462 229c-6 0-11-2-15-6-4-5-6-9-6-15v-553.99c0-6 2-11 6-16 4-4 9-6 15-6h224c85 0 150 20 197 60 46 40 71 98 73 173 1 16 1 38 1 66 0 27 0 48-1 64-6 156-94 234-265 234zm224-128c36 0 63-8 80-25s26-45 27-82c1-17 2-38 2-64s-1-48-2-63c-1-37-11-64-29-81-19-17-46-26-82-26h-81v341zm321 128c-4 0-9-2-12-5-4-4-6-8-6-13 0-3 1-6 1-7l199-547c6-17 17-25 34-25h133c17 0 29 8 34 25l199 547c1 1 1 4 1 7 0 5-2 9-6 13-3 3-7 5-12 5h-111c-14 0-23-6-29-19l-31-82h-223l-31 82c-6 13-15 19-29 19zm207-229h152l-76-218z" class="fil1" fill="#454545"/></svg>
