<svg width="1.3333in" height="1.3333in" clip-rule="evenodd" fill-rule="evenodd" image-rendering="optimizeQuality" shape-rendering="geometricPrecision" text-rendering="geometricPrecision" version="1.1" viewBox="0 0 1333.3 1333.3" xmlns="http://www.w3.org/2000/svg" xmlns:xlink="http://www.w3.org/1999/xlink"><defs><style type="text/css"><![CDATA[
    .str0 {stroke:#D2D3D5;stroke-width:6.94488}
    .fil2 {fill:#FEFEFE}
    .fil0 {fill:#FEFEFE}
    .fil11 {fill:#E6E7E8}
    .fil5 {fill:#4B4B4D}
    .fil1 {fill:#454545}
    .fil4 {fill:#E01C26}
    .fil10 {fill:#E01C26}
    .fil7 {fill:url(#id0)}
    .fil8 {fill:url(#id1)}
    .fil3 {fill:url(#id2)}
    .fil6 {fill:url(#id3)}
    .fil9 {fill:url(#id4)}
   ]]></style><linearGradient id="id0" x1="10647" x2="11848" y1="14445" y2="14445" gradientUnits="userSpaceOnUse"><stop stop-color="#FEFEFE" offset="0"/><stop stop-color="#fff" offset="1"/></linearGradient><linearGradient id="id1" x1="2042.5" x2="2744.5" y1="12032" y2="12968" gradientUnits="userSpaceOnUse"><stop stop-color="#E01C26" offset="0"/><stop stop-color="#822F2F" offset="1"/></linearGradient><linearGradient id="id2" x1="10897" x2="11599" y1="9853.5" y2="10789" gradientUnits="userSpaceOnUse" xlink:href="#id1"/><linearGradient id="id3" x1="10897" x2="11599" y1="13978" y2="14913" gradientUnits="userSpaceOnUse" xlink:href="#id1"/><linearGradient id="id4" x1="7754.9" x2="2500.9" y1="17663" y2="22898" gradientUnits="userSpaceOnUse"><stop stop-color="#E01C26" offset="0"/><stop stop-color="#993132" offset="1"/></linearGradient></defs><g transform="matrix(.85635 0 0 .85635 -1383 -3374.9)" stroke-width="1.1678"><path class="fil1" d="m2394 3941c430 0 778 348 778 779 0 430-348 778-778 778-431 0-779-348-779-778 0-431 348-779 779-779z" fill="#454545"/><path class="fil2" d="m2394 4362c197 0 357 160 357 358v2h11c91 0 171 43 222 110 7-36 10-74 10-112 0-332-269-601-600-601-332 0-601 269-601 601 0 331 269 600 601 600 89 0 175-20 251-55 27 10 56 15 86 15h17c126-9 227-114 227-243 0-48-14-92-37-130-44-68-120-114-207-114-135 0-244 109-244 244 0 9 0 18 1 27-30 8-62 13-94 13-198 0-358-160-358-357 0-198 160-358 358-358zm151 263c-32-50-88-84-151-84-99 0-179 80-179 179 0 98 80 178 179 178 4 0 8 0 12-1 93-6 166-83 166-177 0-35-10-68-27-95z" fill="#fefefe"/></g></svg>
