<?xml version="1.0" encoding="UTF-8" standalone="no"?>
<!-- Creator: CorelDRAW X7 -->
<svg xmlns:rdf="http://www.w3.org/1999/02/22-rdf-syntax-ns#" style="image-rendering:optimizeQuality;text-rendering:geometricPrecision;shape-rendering:geometricPrecision" xmlns="http://www.w3.org/2000/svg" fill-rule="evenodd" xml:space="preserve" height="1.557in" width="1.557in" version="1.1" clip-rule="evenodd" xmlns:cc="http://creativecommons.org/ns#" xmlns:xlink="http://www.w3.org/1999/xlink" viewBox="0 0 1557.0001 1556.9888" xmlns:dc="http://purl.org/dc/elements/1.1/"><metadata><rdf:RDF><cc:Work rdf:about=""><dc:format>image/svg+xml</dc:format><dc:type rdf:resource="http://purl.org/dc/dcmitype/StillImage"/><dc:title/></cc:Work></rdf:RDF></metadata><defs><style type="text/css"><![CDATA[
    .str0 {stroke:#D2D3D5;stroke-width:6.94488}
    .fil2 {fill:#FEFEFE}
    .fil0 {fill:#FEFEFE}
    .fil11 {fill:#E6E7E8}
    .fil5 {fill:#4B4B4D}
    .fil1 {fill:#454545}
    .fil4 {fill:#E01C26}
    .fil10 {fill:#E01C26}
    .fil7 {fill:url(#id0)}
    .fil8 {fill:url(#id1)}
    .fil3 {fill:url(#id2)}
    .fil6 {fill:url(#id3)}
    .fil9 {fill:url(#id4)}
   ]]></style><linearGradient id="id0" y2="14445" gradientUnits="userSpaceOnUse" x2="11848" y1="14445" x1="10647"><stop stop-color="#FEFEFE" offset="0"/><stop stop-color="#fff" offset="1"/></linearGradient><linearGradient id="id1" y2="12968" gradientUnits="userSpaceOnUse" x2="2744.5" y1="12032" x1="2042.5"><stop stop-color="#E01C26" offset="0"/><stop stop-color="#822F2F" offset="1"/></linearGradient><linearGradient id="id2" y2="10789" xlink:href="#id1" gradientUnits="userSpaceOnUse" x2="11599" y1="9853.5" x1="10897"/><linearGradient id="id3" y2="14913" xlink:href="#id1" gradientUnits="userSpaceOnUse" x2="11599" y1="13978" x1="10897"/><linearGradient id="id4" y2="22898" gradientUnits="userSpaceOnUse" x2="2500.9" y1="17663" x1="7754.9"><stop stop-color="#E01C26" offset="0"/><stop stop-color="#993132" offset="1"/></linearGradient></defs><g transform="translate(-1615 -3941)"><path d="m2394 3941c430 0 778 348 778 779 0 430-348 778-778 778-431 0-779-348-779-778 0-431 348-779 779-779z" class="fil1" fill="#454545"/><path d="m2394 4362c197 0 357 160 357 358v2h11c91 0 171 43 222 110 7-36 10-74 10-112 0-332-269-601-600-601-332 0-601 269-601 601 0 331 269 600 601 600 89 0 175-20 251-55 27 10 56 15 86 15h17c126-9 227-114 227-243 0-48-14-92-37-130-44-68-120-114-207-114-135 0-244 109-244 244 0 9 0 18 1 27-30 8-62 13-94 13-198 0-358-160-358-357 0-198 160-358 358-358zm151 263c-32-50-88-84-151-84-99 0-179 80-179 179 0 98 80 178 179 178 4 0 8 0 12-1 93-6 166-83 166-177 0-35-10-68-27-95z" class="fil2" fill="#fefefe"/></g></svg>
